# xmcd
#
# Track frame offsets:
#	150
#	19215
#	36293
#	49619
#
# Disc length: 890 seconds
#
# Revision: 0
# Processed by: cddbd v1.5.1PL0 Copyright (c) Steve Scherf et al.
# Submitted via: dBpowerAMP V4.0
#
DISCID=2b037804
DTITLE=Footprints - Solitude
DYEAR=2005
DGENRE=Country
TTITLE0=Solitude
TTITLE1=In Paris With You
TTITLE2=Modern Patsy
TTITLE3=Out Of Danger
EXTD=
EXTT0=
EXTT1=
EXTT2=
EXTT3=
PLAYORDER=
